<svg xmlns="http://www.w3.org/2000/svg" width="1024" height="1024" viewBox="0 0 1024 1024">
  <defs>
    <linearGradient id="bg" x1="120" y1="60" x2="900" y2="970" gradientUnits="userSpaceOnUse">
      <stop stop-color="#2D3ACB"/>
      <stop offset=".50" stop-color="#171E73"/>
      <stop offset="1" stop-color="#090E35"/>
    </linearGradient>
    <radialGradient id="glow" cx="0" cy="0" r="1" gradientUnits="userSpaceOnUse"
      gradientTransform="translate(512 500) rotate(90) scale(390)">
      <stop stop-color="#7E86FF" stop-opacity=".24"/>
      <stop offset="1" stop-color="#7E86FF" stop-opacity="0"/>
    </radialGradient>
    <clipPath id="iconClip"><rect width="1024" height="1024" rx="216"/></clipPath>
  </defs>

  <g clip-path="url(#iconClip)">
    <rect width="1024" height="1024" fill="url(#bg)"/>
    <circle cx="512" cy="500" r="390" fill="url(#glow)"/>

    <path
      d="M718 250
         C648 183 533 161 426 192
         C325 221 271 290 288 363
         C307 443 391 471 519 499
         C664 531 755 570 752 657
         C749 746 667 803 561 815
         C454 827 359 788 299 720"
      fill="none"
      stroke="#FAFBFF"
      stroke-width="190"
      stroke-linecap="round"
      stroke-linejoin="round"/>

    <g fill="#0A1032">
      <g transform="rotate(4 579 184)"><rect x="555" y="143" width="48" height="112" rx="10"/></g>
      <g transform="rotate(-5 493 182)"><rect x="469" y="141" width="48" height="112" rx="10"/></g>

      <g transform="rotate(-24 396 215)"><rect x="372" y="161" width="48" height="118" rx="10"/></g>
      <g transform="rotate(-43 329 266)"><rect x="305" y="211" width="48" height="120" rx="10"/></g>
      <g transform="rotate(-62 295 335)"><rect x="271" y="278" width="48" height="122" rx="10"/></g>

      <g transform="rotate(78 396 460)"><rect x="372" y="403" width="48" height="118" rx="10"/></g>
      <g transform="rotate(79 490 481)"><rect x="466" y="424" width="48" height="118" rx="10"/></g>

      <g transform="rotate(62 669 542)"><rect x="645" y="485" width="48" height="120" rx="10"/></g>
      <g transform="rotate(43 727 598)"><rect x="703" y="542" width="48" height="120" rx="10"/></g>
      <g transform="rotate(20 752 674)"><rect x="728" y="617" width="48" height="120" rx="10"/></g>

      <g transform="rotate(-7 625 790)"><rect x="601" y="728" width="48" height="124" rx="10"/></g>
      <g transform="rotate(2 530 806)"><rect x="506" y="744" width="48" height="124" rx="10"/></g>

      <g transform="rotate(10 440 799)"><rect x="416" y="737" width="48" height="124" rx="10"/></g>
      <g transform="rotate(24 365 774)"><rect x="341" y="714" width="48" height="120" rx="10"/></g>
      <g transform="rotate(39 313 732)"><rect x="289" y="674" width="48" height="118" rx="10"/></g>
    </g>
  </g>
</svg>